<svg width="807" height="512" viewBox="0 0 807 512" fill="none" xmlns="http://www.w3.org/2000/svg">
<g clip-path="url(#clip0)">
<path d="M800.942 334.792H489.393C487.787 334.79 486.247 334.151 485.112 333.015C483.976 331.879 483.337 330.34 483.335 328.733V6.05828C483.337 4.45207 483.976 2.91217 485.112 1.77641C486.247 0.64065 487.787 0.00179463 489.393 0H800.942C802.548 0.00179184 804.088 0.640649 805.224 1.77641C806.359 2.91217 806.998 4.45207 807 6.05828V328.733C806.998 330.34 806.359 331.879 805.224 333.015C804.088 334.151 802.548 334.79 800.942 334.792ZM489.393 2.11225C488.347 2.11345 487.344 2.52957 486.604 3.26934C485.865 4.0091 485.449 5.01209 485.447 6.05828V328.733C485.449 329.78 485.865 330.783 486.604 331.522C487.344 332.262 488.347 332.678 489.393 332.679H800.942C801.988 332.678 802.991 332.262 803.731 331.522C804.47 330.783 804.887 329.78 804.888 328.733V6.05828C804.887 5.01209 804.47 4.0091 803.731 3.26934C802.991 2.52957 801.988 2.11345 800.942 2.11225H489.393Z" fill="#3F3D56"/>
<path d="M703.891 135.613C710.852 148.469 713.401 163.255 711.147 177.7C708.893 192.144 701.96 205.45 691.413 215.574C680.866 225.698 667.287 232.08 652.762 233.741C638.237 235.402 623.569 232.25 611.008 224.769C598.448 217.287 588.69 205.89 583.233 192.327C577.776 178.764 576.921 163.785 580.8 149.689C584.679 135.594 593.077 123.161 604.705 114.299C616.333 105.438 630.548 100.637 645.168 100.635C645.697 100.635 646.225 100.643 646.752 100.655L646.046 72.1343C645.753 72.1317 645.461 72.1232 645.168 72.1232C624.133 72.1292 603.692 79.0984 587.034 91.9432C570.377 104.788 558.44 122.786 553.086 143.128C547.733 163.47 549.264 185.012 557.441 204.392C565.617 223.773 579.98 239.901 598.286 250.261C616.593 260.621 637.814 264.629 658.639 261.66C679.463 258.691 698.718 248.912 713.4 233.849C728.083 218.786 737.365 199.286 739.8 178.393C742.235 157.499 737.685 136.388 726.859 118.352L703.891 135.613Z" fill="#6C63FF"/>
<path d="M703.891 135.613L726.859 118.352C718.472 104.375 706.636 92.7856 692.486 84.6931C678.336 76.6006 662.346 72.2764 646.046 72.1343L646.752 100.655C658.512 100.931 669.99 104.309 680.024 110.448C690.058 116.587 698.292 125.268 703.891 135.613V135.613Z" fill="#E6E6E6"/>
<path d="M693.665 249.175L692.486 250.343L725.942 284.115L727.121 282.947L693.665 249.175Z" fill="#3F3D56"/>
<path d="M715.144 42.4454L691.889 83.9073L693.336 84.7192L716.591 43.2572L715.144 42.4454Z" fill="#3F3D56"/>
<path d="M751.566 296.576H702.193C701.315 296.575 700.474 296.226 699.853 295.606C699.232 294.985 698.883 294.144 698.882 293.267V286.313C698.883 285.435 699.232 284.594 699.853 283.974C700.474 283.353 701.315 283.004 702.193 283.003H751.566C752.444 283.004 753.285 283.353 753.906 283.974C754.527 284.594 754.876 285.435 754.877 286.313V293.267C754.876 294.144 754.527 294.985 753.906 295.606C753.285 296.226 752.444 296.575 751.566 296.576V296.576Z" fill="#6C63FF"/>
<path d="M739.05 43.4435H689.675C688.797 43.4424 687.956 43.0934 687.336 42.4729C686.715 41.8525 686.366 41.0113 686.365 40.1338V33.1798C686.366 32.3023 686.715 31.4611 687.336 30.8407C687.956 30.2202 688.797 29.8712 689.675 29.8701H739.05C739.927 29.8712 740.768 30.2202 741.389 30.8407C742.009 31.4611 742.358 32.3023 742.359 33.1798V40.1338C742.358 41.0113 742.009 41.8525 741.389 42.4729C740.768 43.0934 739.927 43.4424 739.05 43.4435V43.4435Z" fill="#E6E6E6"/>
<path d="M433.533 154.06H81.4536C79.9234 154.058 78.4564 153.449 77.3744 152.367C76.2924 151.285 75.6837 149.818 75.682 148.288V6.82771C75.6837 5.29753 76.2924 3.83052 77.3744 2.74852C78.4564 1.66652 79.9234 1.05789 81.4536 1.05615H433.533C435.063 1.05794 436.53 1.66659 437.612 2.74859C438.694 3.83058 439.303 5.29757 439.304 6.82771V148.288C439.303 149.818 438.694 151.285 437.612 152.367C436.53 153.449 435.063 154.058 433.533 154.06ZM81.4536 3.1684C80.4834 3.16945 79.5532 3.55533 78.8672 4.24135C78.1812 4.92738 77.7953 5.85752 77.7943 6.82771V148.288C77.7953 149.258 78.1812 150.188 78.8672 150.874C79.5532 151.56 80.4834 151.946 81.4536 151.947H433.533C434.503 151.946 435.433 151.56 436.119 150.874C436.805 150.188 437.191 149.258 437.192 148.288V6.82771C437.191 5.85756 436.805 4.92745 436.119 4.24143C435.433 3.55541 434.503 3.16951 433.533 3.1684H81.4536Z" fill="#3F3D56"/>
<path d="M218.699 118.952H184.587C183.715 118.951 182.872 118.64 182.209 118.075C181.545 117.51 181.103 116.728 180.962 115.867C178.737 101.415 178.737 86.7079 180.962 72.2559C181.103 71.3957 181.545 70.6135 182.209 70.0486C182.872 69.4837 183.715 69.1727 184.587 69.171H218.699C219.252 69.1693 219.798 69.2937 220.295 69.5347C220.793 69.7757 221.229 70.127 221.57 70.5618C221.918 71.0029 222.162 71.5176 222.282 72.0669C222.401 72.6162 222.394 73.1856 222.261 73.7318C219.07 87.0972 219.07 101.026 222.261 114.392C222.394 114.938 222.401 115.507 222.282 116.056C222.162 116.606 221.918 117.12 221.57 117.561C221.229 117.996 220.793 118.348 220.295 118.589C219.798 118.83 219.252 118.954 218.699 118.952Z" fill="#E6E6E6"/>
<path d="M332.914 118.952H298.801C297.929 118.951 297.087 118.64 296.423 118.075C295.759 117.51 295.317 116.728 295.176 115.867C292.951 101.415 292.951 86.7079 295.176 72.2559C295.317 71.3957 295.759 70.6136 296.423 70.0487C297.087 69.4838 297.929 69.1728 298.801 69.171H332.914C333.466 69.1693 334.012 69.2937 334.51 69.5348C335.007 69.7759 335.443 70.1274 335.784 70.5624C336.133 71.0033 336.376 71.518 336.496 72.0672C336.616 72.6165 336.608 73.1858 336.475 73.7318C333.284 87.0972 333.284 101.026 336.475 114.392C336.608 114.938 336.616 115.507 336.496 116.056C336.376 116.605 336.133 117.12 335.784 117.561C335.443 117.996 335.007 118.347 334.51 118.589C334.012 118.83 333.466 118.954 332.914 118.952Z" fill="#E6E6E6"/>
<path d="M160.676 85.9447H126.564C125.692 85.9431 124.849 85.6321 124.186 85.0672C123.522 84.5022 123.08 83.7201 122.939 82.8599C120.714 68.4078 120.714 53.7003 122.939 39.2483C123.08 38.3881 123.522 37.6059 124.186 37.041C124.849 36.4761 125.692 36.1651 126.564 36.1635H160.676C161.229 36.1617 161.775 36.2861 162.272 36.5271C162.77 36.7681 163.206 37.1194 163.547 37.5543C163.896 37.9953 164.139 38.5101 164.259 39.0594C164.378 39.6087 164.371 40.1781 164.238 40.7242C161.047 54.0896 161.047 68.0185 164.238 81.3839C164.371 81.93 164.378 82.4994 164.259 83.0488C164.139 83.5981 163.896 84.1128 163.547 84.5539C163.206 84.9887 162.77 85.3401 162.272 85.5811C161.775 85.8221 161.229 85.9464 160.676 85.9447V85.9447Z" fill="#6C63FF"/>
<path d="M276.04 85.9447H241.928C241.375 85.9465 240.829 85.8221 240.331 85.581C239.834 85.3399 239.398 84.9884 239.057 84.5534C238.708 84.1124 238.465 83.5978 238.345 83.0485C238.226 82.4993 238.233 81.93 238.367 81.384C241.557 68.0185 241.557 54.0896 238.366 40.7242C238.233 40.1782 238.226 39.6089 238.345 39.0597C238.465 38.5104 238.708 37.9958 239.057 37.5548C239.398 37.1198 239.834 36.7683 240.331 36.5272C240.829 36.2861 241.375 36.1617 241.928 36.1635H276.04C276.912 36.1651 277.755 36.4761 278.418 37.041C279.082 37.6059 279.524 38.3881 279.665 39.2483C281.89 53.7003 281.89 68.4078 279.665 82.8598C279.524 83.72 279.082 84.5022 278.418 85.0671C277.755 85.6321 276.912 85.9431 276.04 85.9447Z" fill="#6C63FF"/>
<path d="M388.423 85.9447H354.31C353.757 85.9465 353.211 85.8221 352.714 85.581C352.216 85.3399 351.781 84.9884 351.439 84.5534C351.091 84.1124 350.847 83.5978 350.728 83.0485C350.608 82.4993 350.615 81.93 350.749 81.384C353.94 68.0185 353.94 54.0896 350.749 40.7242C350.615 40.1782 350.608 39.6089 350.728 39.0596C350.847 38.5104 351.091 37.9957 351.439 37.5548C351.781 37.1198 352.216 36.7683 352.714 36.5272C353.211 36.2861 353.757 36.1617 354.31 36.1635H388.423C389.294 36.1652 390.137 36.4762 390.801 37.0411C391.465 37.606 391.906 38.3882 392.048 39.2483C394.273 53.7004 394.273 68.4078 392.048 82.8598C391.906 83.72 391.465 84.5021 390.801 85.067C390.137 85.632 389.294 85.943 388.423 85.9447V85.9447Z" fill="#FF6584"/>
<path d="M198.485 337.396C196.86 337.065 195.327 336.381 193.994 335.394C192.662 334.406 191.562 333.138 190.772 331.68C189.983 330.221 189.522 328.607 189.424 326.951C189.326 325.296 189.592 323.638 190.203 322.097L143.38 221.563L167.133 214.887L205.731 315.93C208.253 317.129 210.248 319.211 211.337 321.783C212.427 324.354 212.535 327.236 211.642 329.881C210.749 332.527 208.916 334.754 206.491 336.139C204.066 337.523 201.218 337.971 198.485 337.396V337.396Z" fill="#A0616A"/>
<path d="M107.808 497.819H120.756L126.916 447.877H107.806L107.808 497.819Z" fill="#A0616A"/>
<path d="M145.727 509.841L105.034 509.843L105.033 494.12L130.004 494.119C134.174 494.119 138.173 495.775 141.122 498.723C144.07 501.672 145.727 505.671 145.727 509.841V509.841V509.841Z" fill="#2F2E41"/>
<path d="M40.5066 483.862L52.4081 488.959L77.7361 445.478L60.1695 437.954L40.5066 483.862Z" fill="#A0616A"/>
<path d="M70.6287 509.843L33.2222 493.821L39.4125 479.368L62.3665 489.2C66.1995 490.842 69.2234 493.939 70.7729 497.81C72.3223 501.681 72.2705 506.009 70.6287 509.843V509.843V509.843Z" fill="#2F2E41"/>
<path d="M139.821 174.398C154.147 174.398 165.76 162.785 165.76 148.459C165.76 134.133 154.147 122.519 139.821 122.519C125.495 122.519 113.881 134.133 113.881 148.459C113.881 162.785 125.495 174.398 139.821 174.398Z" fill="#A0616A"/>
<path d="M121.081 485.609L106.827 482.894C105.656 482.677 104.609 482.026 103.897 481.07C103.185 480.115 102.861 478.925 102.989 477.741L112.44 385.585C112.531 384.705 112.303 383.823 111.798 383.097C111.294 382.372 110.546 381.851 109.69 381.629C108.835 381.407 107.928 381.5 107.135 381.889C106.341 382.279 105.713 382.939 105.365 383.752L64.1013 480.036C63.8533 480.614 63.4928 481.138 63.0408 481.576C62.5888 482.014 62.0543 482.358 61.4684 482.587C60.8824 482.817 60.2566 482.928 59.6274 482.914C58.9981 482.9 58.3779 482.761 57.8027 482.506L46.2099 477.353C45.1276 476.877 44.2628 476.013 43.7855 474.931C43.3083 473.849 43.2533 472.628 43.6312 471.507L71.8531 386.841C71.9325 386.603 71.9875 386.357 72.0171 386.108L81.178 308.749C81.2779 307.905 81.6025 307.103 82.118 306.426C82.6335 305.75 83.3211 305.225 84.1089 304.905L113.035 293.154C113.89 292.806 114.829 292.716 115.735 292.893C116.642 293.07 117.477 293.507 118.139 294.151L154.65 329.702C155.219 330.253 155.64 330.939 155.875 331.695C156.11 332.452 156.152 333.256 155.996 334.032L126.632 481.866C126.414 482.944 125.831 483.913 124.981 484.611C124.131 485.308 123.066 485.69 121.967 485.693C121.669 485.693 121.373 485.665 121.081 485.609V485.609Z" fill="#2F2E41"/>
<path d="M104.831 313.015C99.7779 307.164 96.0899 304.509 93.5677 304.927C91.0651 305.332 89.6214 308.828 88.0927 312.53C86.0062 317.582 83.6413 323.309 77.812 323.757C76.9044 323.913 75.9713 323.811 75.1193 323.461C74.2672 323.112 73.5306 322.53 72.9937 321.782C68.4084 314.963 79.4065 292.396 80.4113 290.368L79.8956 183.636C79.8885 182.775 80.1161 181.928 80.5539 181.186C80.9917 180.445 81.6232 179.837 82.3806 179.427C112.603 163.129 153.412 191.473 161.286 197.322C161.916 197.789 162.42 198.404 162.754 199.114C163.088 199.823 163.24 200.604 163.198 201.387C162.248 219.263 157.509 309.45 157.509 329.568C157.509 335.137 155.588 338.676 151.799 340.085C150.52 340.539 149.17 340.76 147.813 340.739C136.253 340.739 117.319 327.475 104.831 313.015Z" fill="#CCCCCC"/>
<path d="M147.008 261.189C146.377 260.778 145.853 260.222 145.481 259.566C145.109 258.911 144.9 258.175 144.872 257.422L142.825 209.616C142.699 206.673 143.624 203.781 145.435 201.457C147.247 199.134 149.825 197.531 152.711 196.935C155.596 196.339 158.599 196.789 161.182 198.205C163.766 199.62 165.761 201.909 166.812 204.661L182.133 244.812C182.581 245.989 182.544 247.297 182.029 248.447C181.514 249.597 180.564 250.496 179.387 250.946L151.315 261.659C150.612 261.931 149.854 262.031 149.104 261.949C148.355 261.867 147.636 261.606 147.008 261.189V261.189Z" fill="#CCCCCC"/>
<path d="M75.6701 335.887C74.2938 334.961 73.1373 333.745 72.2819 332.324C71.4265 330.902 70.8932 329.311 70.7193 327.662C70.5455 326.012 70.7355 324.345 71.2759 322.776C71.8162 321.208 72.6939 319.778 73.847 318.585L68.8936 207.793L93.3975 210.678L90.553 318.806C92.4276 320.876 93.4778 323.561 93.5046 326.354C93.5314 329.146 92.533 331.851 90.6984 333.957C88.8639 336.062 86.3208 337.422 83.551 337.777C80.7811 338.133 77.9771 337.46 75.6701 335.887H75.6701Z" fill="#A0616A"/>
<path d="M58.6547 237.295C58.2106 236.686 57.9193 235.979 57.8056 235.234C57.6919 234.489 57.7591 233.728 58.0014 233.014L73.1331 187.619C74.0646 184.824 75.9603 182.452 78.4809 180.927C81.0015 179.402 83.9825 178.823 86.8905 179.295C89.7986 179.767 92.4437 181.259 94.3527 183.502C96.2617 185.746 97.3099 188.596 97.3098 191.542V234.516C97.3084 235.777 96.8072 236.985 95.9162 237.875C95.0252 238.766 93.8172 239.268 92.5572 239.269H62.5103C61.7564 239.273 61.0127 239.096 60.3417 238.752C59.6707 238.409 59.0921 237.909 58.6547 237.295V237.295Z" fill="#CCCCCC"/>
<path d="M123.07 165.906C122.099 166.667 120.886 167.052 119.653 166.99C118.421 166.929 117.253 166.425 116.362 165.571C110.803 160.375 106.111 154.161 103.736 146.965C101.016 138.718 101.711 129.06 106.921 122.114C111.326 116.242 118.298 112.924 125.165 110.331C127.846 109.197 130.678 108.462 133.572 108.148C136.495 107.844 139.423 108.667 141.761 110.447C142.901 111.357 143.739 112.589 144.168 113.983C144.597 115.376 144.595 116.867 144.164 118.259C147.686 115.061 151.983 112.838 156.628 111.812C159.569 111.032 162.676 111.161 165.542 112.181C169.525 113.819 172.112 117.819 173.304 121.957C174.289 125.114 174.369 128.483 173.534 131.683C173.105 133.274 172.347 134.757 171.309 136.036C170.271 137.316 168.976 138.363 167.508 139.11C163.864 140.827 159.54 140.179 155.731 138.872C151.921 137.565 148.309 135.637 144.368 134.803C140.428 133.97 135.878 134.456 133.09 137.362C131.126 139.409 130.353 142.289 129.651 145.037L125.998 159.33C125.595 161.412 124.823 163.406 123.72 165.217C123.535 165.475 123.316 165.706 123.07 165.906V165.906Z" fill="#2F2E41"/>
<path d="M228.268 372.155H194.156C193.284 372.153 192.441 371.842 191.778 371.277C191.114 370.712 190.672 369.93 190.531 369.07C188.306 354.618 188.306 339.91 190.531 325.458C190.672 324.598 191.114 323.816 191.778 323.251C192.441 322.686 193.284 322.375 194.156 322.373H228.268C228.821 322.372 229.367 322.496 229.865 322.737C230.362 322.978 230.798 323.33 231.139 323.765C231.488 324.206 231.731 324.72 231.851 325.27C231.97 325.819 231.963 326.388 231.83 326.934C228.639 340.299 228.639 354.228 231.83 367.594C231.963 368.14 231.97 368.709 231.851 369.258C231.731 369.808 231.488 370.322 231.139 370.763C230.798 371.198 230.362 371.55 229.865 371.791C229.367 372.032 228.821 372.156 228.268 372.155Z" fill="#6C63FF"/>
<path d="M171.092 511.164H1.05612C0.776023 511.164 0.507393 511.053 0.309331 510.855C0.111269 510.657 0 510.388 0 510.108C0 509.828 0.111269 509.56 0.309331 509.362C0.507393 509.164 0.776023 509.052 1.05612 509.052H171.092C171.372 509.052 171.641 509.164 171.839 509.362C172.037 509.56 172.148 509.828 172.148 510.108C172.148 510.388 172.037 510.657 171.839 510.855C171.641 511.053 171.372 511.164 171.092 511.164Z" fill="#3F3D56"/>
</g>
<defs>
<clipPath id="clip0">
<rect width="807" height="511.164" fill="white"/>
</clipPath>
</defs>
</svg>
